<svg xmlns="http://www.w3.org/2000/svg" viewBox="0 0 96 96" role="img" aria-labelledby="title desc">
  <title id="title">OpenHW Explorer mark</title>
  <desc id="desc">A deep blue rounded icon with geometric OH lettering and a stylized explorer X.</desc>
  <defs>
    <linearGradient id="openhw-explorer-mark-gradient" x1="16" x2="80" y1="10" y2="86">
      <stop stop-color="#0D63D8" />
      <stop offset="0.48" stop-color="#073D82" />
      <stop offset="1" stop-color="#061B3F" />
    </linearGradient>
    <filter id="openhw-explorer-mark-shadow" x="-10%" y="-10%" width="120%" height="125%">
      <feDropShadow dx="0" dy="4" stdDeviation="5" flood-color="#061B3F" flood-opacity="0.18" />
    </filter>
  </defs>
  <rect x="8" y="8" width="80" height="80" rx="22" fill="url(#openhw-explorer-mark-gradient)" filter="url(#openhw-explorer-mark-shadow)" />
  <path fill="#FFFFFF" fill-rule="evenodd" d="M25 25h20a8 8 0 0 1 8 8v10a8 8 0 0 1-8 8H25a8 8 0 0 1-8-8V33a8 8 0 0 1 8-8Zm2 9v8h16v-8H27Z" />
  <path fill="#FFFFFF" d="M57 25h8v10h15V25h8v26h-8V42H65v9h-8V25Z" />
  <path d="M25 70 62 48M33 50l39 26" fill="none" stroke="#FFFFFF" stroke-linecap="square" stroke-linejoin="round" stroke-width="9" />
  <path d="M67 70h19L64 50Z" fill="#18A957" />
</svg>
