<svg xmlns="http://www.w3.org/2000/svg" viewBox="0 0 96 96" role="img" aria-labelledby="title desc">
  <title id="title">OpenHW Explorer mark</title>
  <desc id="desc">A chip-shaped OpenHW Explorer OHX mark with navy lettering and a green X accent.</desc>
  <defs>
    <linearGradient id="openhw-explorer-chip-face" x1="26" x2="72" y1="20" y2="78">
      <stop stop-color="#FFFFFF" />
      <stop offset="1" stop-color="#F6FAFF" />
    </linearGradient>
    <filter id="openhw-explorer-chip-shadow" x="-14%" y="-14%" width="128%" height="128%">
      <feDropShadow dx="0" dy="2" stdDeviation="2.2" flood-color="#082454" flood-opacity="0.12" />
    </filter>
  </defs>
  <g fill="#9AA5B1">
    <rect x="27" y="8" width="6" height="11" rx="1" />
    <rect x="39" y="8" width="6" height="11" rx="1" />
    <rect x="51" y="8" width="6" height="11" rx="1" />
    <rect x="63" y="8" width="6" height="11" rx="1" />
    <rect x="27" y="77" width="6" height="11" rx="1" />
    <rect x="39" y="77" width="6" height="11" rx="1" />
    <rect x="51" y="77" width="6" height="11" rx="1" />
    <rect x="63" y="77" width="6" height="11" rx="1" />
    <rect x="8" y="27" width="11" height="6" rx="1" />
    <rect x="8" y="39" width="11" height="6" rx="1" />
    <rect x="8" y="51" width="11" height="6" rx="1" />
    <rect x="8" y="63" width="11" height="6" rx="1" />
    <rect x="77" y="27" width="11" height="6" rx="1" />
    <rect x="77" y="39" width="11" height="6" rx="1" />
    <rect x="77" y="51" width="11" height="6" rx="1" />
    <rect x="77" y="63" width="11" height="6" rx="1" />
  </g>
  <rect x="19" y="19" width="58" height="58" rx="7" fill="url(#openhw-explorer-chip-face)" stroke="#082454" stroke-width="3.8" filter="url(#openhw-explorer-chip-shadow)" />
  <g transform="translate(23 31) scale(0.74)">
    <rect x="0" y="8" width="21" height="23" rx="6.5" fill="#082454" />
    <rect x="7" y="15" width="8" height="10" rx="2" fill="#FFFFFF" />
    <path fill="#082454" d="M25 8h6v8h12V8h6v31h-6V23H31v16h-6V8Z" />
    <path d="M49 8 60 23 49 39h-8l11-16L41 8h8Z" fill="#0D56B3" />
    <path d="M63 8h9L58 23l15 16h-9L54 27 44 39h-9l15-16L36 8h9l9 11 9-11Z" fill="#18A957" />
  </g>
</svg>
