<svg xmlns="http://www.w3.org/2000/svg" viewBox="0 0 470 150" role="img" aria-labelledby="title desc">
  <title id="title">OpenHW Explorer wordmark</title>
  <desc id="desc">OpenHW Explorer wordmark with a deep navy OH mark, compact X accent, and Explore Learn Build tagline.</desc>
  <defs>
    <linearGradient id="openhw-explorer-mark-gradient" x1="30" x2="116" y1="22" y2="124">
      <stop stop-color="#073777" />
      <stop offset="0.56" stop-color="#062552" />
      <stop offset="1" stop-color="#03142F" />
    </linearGradient>
  </defs>
  <rect x="20" y="20" width="104" height="104" rx="27" fill="url(#openhw-explorer-mark-gradient)" />
  <g transform="translate(20 20) scale(1.04)">
    <rect x="15" y="24" width="40" height="31" rx="9" fill="#FFFFFF" />
    <rect x="27" y="34" width="16" height="11" rx="2.5" fill="#062552" />
    <path fill="#FFFFFF" d="M60 24h9v12h14V24h9v31h-9V44H69v11h-9V24Z" />
    <path d="M68 75 85 84 76 64Z" fill="#18A957" />
    <path d="M23 79 67 55" fill="none" stroke="#FFFFFF" stroke-linecap="square" stroke-linejoin="round" stroke-width="7.2" />
    <path d="M37 59 82 82" fill="none" stroke="#FFFFFF" stroke-linecap="square" stroke-linejoin="round" stroke-width="7.2" />
  </g>
  <text x="152" y="60" fill="#071B3E" font-family="Inter, Arial, Helvetica, system-ui, sans-serif" font-size="44" font-weight="800" letter-spacing="-1.6">OpenHW</text>
  <text x="152" y="101" fill="#0B5CAB" font-family="Inter, Arial, Helvetica, system-ui, sans-serif" font-size="44" font-weight="800" letter-spacing="-1.4">Explorer</text>
  <text x="154" y="127" fill="#8B949E" font-family="Inter, Arial, Helvetica, system-ui, sans-serif" font-size="14" font-weight="700" letter-spacing="3.4">EXPLORE</text>
  <circle cx="246" cy="122.5" r="2.7" fill="#18A957" />
  <text x="259" y="127" fill="#8B949E" font-family="Inter, Arial, Helvetica, system-ui, sans-serif" font-size="14" font-weight="700" letter-spacing="3.4">LEARN</text>
  <circle cx="338" cy="122.5" r="2.7" fill="#18A957" />
  <text x="351" y="127" fill="#8B949E" font-family="Inter, Arial, Helvetica, system-ui, sans-serif" font-size="14" font-weight="700" letter-spacing="3.4">BUILD</text>
</svg>
