<?xml version="1.0" encoding="UTF-8"?>
<svg id="Layer_1" xmlns="http://www.w3.org/2000/svg" version="1.1" viewBox="0 0 720 87.8">
  <!-- Generator: Adobe Illustrator 29.1.0, SVG Export Plug-In . SVG Version: 2.1.0 Build 142)  -->
  <defs>
    <style>
      .st0 {
        fill: #004751;
      }

      .st1 {
        fill: #00c18b;
      }
    </style>
  </defs>
  <g>
    <path class="st0" d="M183.8,25.1l5.2,46.5c0,.9-.2,1.2-1,1.2h-7.5c-.6,0-.7-.3-.8-1.2l-1.8-15.7h-20.7l-6.8,15.7c-.4.9-.6,1.2-1.2,1.2h-7.5c-.8,0-1-.3-.7-1.2l20.3-46.5c3.3-7.7,4.8-8.5,12.4-8.5s9.2.9,10.1,8.5ZM169.4,27.5l-8.8,20.5h16.5l-2.3-20.5c-.3-2.6-.3-3-2.3-3s-1.9.4-3.1,3Z"/>
    <path class="st0" d="M211.2,17c.7,0,1,.4.9,1.1l-2.3,14.3c3.2-.4,6.5-.4,8.6-.4,13.5,0,16.9,2,14.5,17.3l-3.6,22.3c0,.7-.5,1.1-1.2,1.1h-6.6c-.7,0-1-.4-.9-1.1l3.3-20.7c1.7-10.8.1-11.3-6.7-11.3h-8.4l-5.1,32c0,.7-.5,1.1-1.2,1.1h-6.7c-.7,0-.9-.4-.9-1.1l8.5-53.6c0-.7.5-1.1,1.2-1.1h6.6Z"/>
    <path class="st0" d="M273.9,51.9l-.4,2.2c-.2,1.4-.7,2-2.8,2h-23c-1,7.7.4,9.5,7.5,9.5h12.4c.7,0,1,.4.9,1.1l-.7,4.5c0,.8-.5,1.1-1.2,1.2-3.9.6-8.4.8-13.1.8-14.2,0-16.7-4.1-14.2-20.5,2.6-16.5,6.5-20.6,20.7-20.6s16.3,3.9,13.9,19.8ZM248.8,49.7h16.7c1.2-7.9,0-9.9-6.5-9.9s-8.7,2-10.1,9.9Z"/>
    <path class="st0" d="M314.1,44l-4.1,25.4c0,.9-.4,1.7-1.7,2.1-4,1.1-10.5,1.6-16.7,1.6-10.2,0-15.1-1.6-13.5-12.2,1.5-9.3,6.8-11.6,15.7-11.6h10.5l.6-3.8c.6-4.1-1.5-5.8-7.3-5.8h-12c-.8,0-1-.2-.9-1.2l.7-4.4c.1-.9.4-1,1.2-1.2,4.5-.8,8.4-.9,12.2-.9,12.8,0,16.4,4.1,15.1,12ZM293.4,55.7c-3.9,0-5.8,1.2-6.4,4.9-.7,4.2,1.2,5.2,6.5,5.2s5.8-.1,8.4-.8l1.5-9.3h-10Z"/>
    <path class="st0" d="M359,17c.8,0,1.1.3.9,1.1l-8.2,52.2c-.1,1-.7,1.4-1.6,1.5-6.3,1-10.5,1.3-15.8,1.3-14.7,0-17.2-4.2-14.6-20.5,2.5-16.2,6.4-20.6,19.9-20.6s6.8.1,9.2.4l2.3-14.4c0-.8.5-1.1,1.2-1.1h6.6ZM339.8,39.7c-8.1,0-9.5,2.4-11.2,12.9-1.6,9.9-1.2,12.8,6.9,12.8s5.7-.2,8.3-.6l4-25.2h-8Z"/>
    <path class="st0" d="M405.1,17.5c.8.1,1.2.6,1.1,1.5l-.7,4.6c-.1.8-.5,1.2-1.2,1.2h-14.3c-11.3,0-14,4.5-16.4,20.1-2.5,15.6-1.2,20.1,10.1,20.1h14.2c.7,0,1,.4.9,1.1l-.7,4.6c-.1.9-.7,1.5-1.7,1.6-3.6.6-8.5.9-14,.9-18.1,0-21.7-6.5-18.3-28.3,3.4-21.9,9-28.3,27.2-28.3s10.3.2,13.8.9Z"/>
    <path class="st0" d="M441.6,52.7c-2.5,16.4-6.4,20.5-20.9,20.5s-17-4.1-14.5-20.5c2.6-16.5,6.5-20.6,21-20.6s17,4.1,14.4,20.6ZM415,52.7c-1.7,10.3-.9,12.8,6.8,12.8s9.2-2.6,10.9-12.8c1.7-10.4.9-12.9-6.8-12.9s-9.2,2.6-10.9,12.9Z"/>
    <path class="st0" d="M504.3,48.2l-3.8,23.5c-.1.7-.5,1.1-1.2,1.1h-6.6c-.7,0-.9-.4-.9-1.1l3.3-20.7c1.7-10.8,0-11.3-6.3-11.3s-5.1.2-7.3.6c.4,2.2.2,5.1-.4,9.1l-3.6,22.3c-.1.8-.5,1.1-1.2,1.1h-6.7c-.7,0-1-.4-.9-1.1l3.5-22.2c1.5-9.4-.3-9.8-6.5-9.8h-6.2l-5,32c-.1.7-.6,1.1-1.3,1.1h-6.6c-.7,0-.9-.4-.9-1.1l5.8-37.3c.1-.9.5-1,1.2-1.2,4.1-.8,9.7-1.2,13.2-1.2,5.1,0,9.7.9,12.1,2.2,4.1-1.4,9-2.3,12.6-2.3,12,0,15.7,2.4,13.5,16.2Z"/>
    <path class="st0" d="M546.7,52.3c-2.6,16.6-6.5,20.9-20,20.9s-6.1,0-9.2-.4l-2.2,13.5c0,.8-.5,1.2-1.2,1.2h-6.6c-.7,0-1-.4-.9-1.2l8.1-51.4c.1-.9.7-1.3,1.5-1.5,6.4-1,10.5-1.3,15.7-1.3,14.8,0,17.3,4.2,14.8,20.2ZM522.7,39.7l-4,25.3c2.5.3,5.5.4,7.9.4,8.1,0,9.6-2.4,11.3-12.8,1.6-10,1.3-12.8-6.8-12.8h-8.4Z"/>
    <path class="st0" d="M590.4,32.4c.7,0,1,.3.9,1.1l-5.9,37.2c-.1.9-.5,1-1.2,1.2-5.5,1.1-12.1,1.2-16.4,1.2-13.5,0-16.9-2.1-14.5-17.4l3.5-22.3c.1-.8.7-1.1,1.4-1.1h6.5c.7,0,1,.4.9,1.1l-3.3,20.7c-1.7,10.8,0,11.3,6.8,11.3h8.4l5-32c.1-.8.6-1.1,1.3-1.1h6.7Z"/>
    <path class="st0" d="M612.2,21.3c.9-.2,1.2.2,1,1l-1.6,10.2h7.2c.8,0,1.1.4,1,1.1l-.8,4.6c0,.8-.5,1.2-1.3,1.2h-7.2l-3.5,22.3c-.5,3.2.4,3.9,3.9,3.9h3.2c.8,0,1.2.3,1.1,1l-.7,4.8c-.2.8-.7,1.2-1.4,1.3-2,.4-4.1.5-5.2.5-5.7,0-11.5-.1-10.1-8.9l3.9-24.9h-4.1c-.8,0-1.1-.4-1-1.2l.7-4.6c0-.7.6-1.1,1.3-1.1h4.2l1.3-8.4c.1-.7.5-1,1.2-1.2l6.9-1.7Z"/>
    <path class="st0" d="M634.4,32.4c.7,0,1,.4.9,1.1l-6,38.2c0,.7-.5,1.1-1.2,1.1h-6.6c-.7,0-1-.4-.9-1.1l6-38.2c.1-.7.6-1.1,1.3-1.1h6.6ZM638.2,20.9c-.5,3.2-2.7,5-6,5s-5-1.8-4.5-5c.5-3.2,2.7-5,6.1-5s4.9,1.8,4.4,5Z"/>
    <path class="st0" d="M675.8,49.4l-3.5,22.3c-.1.7-.7,1.1-1.4,1.1h-6.5c-.7,0-1-.4-.9-1.1l3.3-20.7c1.7-10.8,0-11.2-6.8-11.2h-8.4l-5,32c-.1.7-.6,1.1-1.3,1.1h-6.7c-.7,0-.9-.4-.9-1.1l5.9-37.3c.1-.9.5-1,1.2-1.2,5.5-1.1,12.1-1.2,16.5-1.2,13.4,0,16.8,2,14.4,17.3Z"/>
    <path class="st0" d="M718.8,33.4c.9,0,1.3.6,1.2,1.5l-5.6,35.6c-2,12.7-5.2,17.3-20,17.3s-8-.2-11.9-.8c-.7-.1-.9-.5-.8-1.2l.7-4.3c0-.8.4-1.1,1.2-1.1h11.3c7.3,0,9.3-1.8,10.3-7.5v-.4c-3.2.5-6,.7-9.4.7-13.5,0-16-4.4-13.4-20.9,2.5-16.1,6.5-20.2,21.2-20.2s11.7.6,15.2,1.3ZM702.1,39.7c-8,0-9.3,2.8-10.9,12.8-1.6,10.4-.9,12.8,7.3,12.8s5.4,0,7.9-.4l4-25.3h-8.3Z"/>
  </g>
  <g>
    <path class="st0" d="M12.4,72.6h20.6c.6,0,1.2-.3,1.6-.9l32.8-50.3c.3-.4.7-.7,1.1-.7l20.2-3.6c.4,0,.7-.4.7-.8V.8c0-.5-.5-.9-1-.8l-32.6,6.1c-.9.2-1.7.7-2.2,1.5L11.7,71.3c-.4.6,0,1.3.7,1.3Z"/>
    <rect class="st0" x="67.1" y="62.2" width="22.3" height="10.4" rx=".8" ry=".8"/>
    <path class="st1" d="M18.3,48.1l-13.1,1.2c-.9,0-1.7.6-2.2,1.3L.1,54.9c-.4.6,0,1.3.7,1.3h12.2c.9,0,1.8-.5,2.4-1.3l3.7-5.6c.4-.6,0-1.4-.8-1.3Z"/>
    <path class="st1" d="M27.4,34.1l-14.3,2.6c-.8.1-1.5.6-1.9,1.3l-2.8,4.3c-.4.6,0,1.4.8,1.3l13.3-1.2c.9,0,1.6-.5,2.1-1.3l3.7-5.7c.4-.6-.1-1.4-.8-1.3Z"/>
    <path class="st1" d="M115.5,18.2l-40.9,7.4c-1.8.3-3.4,1.4-4.4,2.9l-5.6,8.5c-.4.6,0,1.4.8,1.3l42.9-3.9c1,0,1.9-.7,2.3-1.7l5.9-13.4c.3-.6-.3-1.3-.9-1.2Z"/>
    <path class="st1" d="M120.9,38.9l-57.8,5.2c-2,.2-3.9,1.3-5,3l-5.1,7.8c-.4.6,0,1.3.7,1.3h59.2c1.1,0,2.1-.7,2.6-1.7l6.3-14.4c.3-.6-.2-1.2-.8-1.2Z"/>
  </g>
</svg>