<svg xmlns="http://www.w3.org/2000/svg" width="33" height="32" viewBox="0 0 33 32" fill="none"><rect x="0.230957" width="32" height="32" rx="16" fill="white"></rect><path d="M24.5843 5.4375H7.87696C7.71219 5.4375 7.57861 5.57107 7.57861 5.73585V26.2642C7.57861 26.4289 7.71219 26.5625 7.87696 26.5625H7.97106C8.04729 26.5625 8.12062 26.5333 8.17602 26.481L19.5485 15.7303C19.6081 15.674 19.6419 15.5955 19.6419 15.5135V15.4404C19.6419 15.3781 19.6224 15.3174 19.5862 15.2668L17.3939 12.2025C17.3378 12.1242 17.2475 12.0778 17.1512 12.0778H17.0616C16.9882 12.0778 16.9174 12.1048 16.8628 12.1537L12.4129 16.1302C12.3582 16.1791 12.2874 16.2061 12.2141 16.2061H12.1671C12.0024 16.2061 11.8688 16.0726 11.8688 15.9078V9.91269C11.8688 9.74792 12.0024 9.61435 12.1671 9.61435H19.8108C19.9756 9.61435 20.1092 9.74792 20.1092 9.91269V23.4529C20.1092 23.6176 20.2427 23.7512 20.4075 23.7512H24.5843C24.7491 23.7512 24.8827 23.6176 24.8827 23.4529V5.73585C24.8827 5.57107 24.7491 5.4375 24.5843 5.4375Z" fill="#010101" stroke="#E10D0D" stroke-width="0.358015"></path></svg>