<?xml version="1.0" encoding="UTF-8" standalone="no"?>
<!-- Created with Inkscape (http://www.inkscape.org/) -->
<svg
   xmlns:dc="http://purl.org/dc/elements/1.1/"
   xmlns:cc="http://web.resource.org/cc/"
   xmlns:rdf="http://www.w3.org/1999/02/22-rdf-syntax-ns#"
   xmlns:svg="http://www.w3.org/2000/svg"
   xmlns="http://www.w3.org/2000/svg"
   xmlns:sodipodi="http://sodipodi.sourceforge.net/DTD/sodipodi-0.dtd"
   xmlns:inkscape="http://www.inkscape.org/namespaces/inkscape"
   width="896.28284"
   height="191.21899"
   id="svg11928"
   sodipodi:version="0.32"
   inkscape:version="0.44"
   version="1.0"
   sodipodi:docbase="F:\Logos"
   sodipodi:docname="Altera-Logo.svg">
  <defs
     id="defs11930" />
  <sodipodi:namedview
     id="base"
     pagecolor="#ffffff"
     bordercolor="#666666"
     borderopacity="1.0"
     inkscape:pageopacity="0.0"
     inkscape:pageshadow="2"
     inkscape:zoom="0.35"
     inkscape:cx="350"
     inkscape:cy="433.21524"
     inkscape:document-units="px"
     inkscape:current-layer="layer1"
     inkscape:window-width="925"
     inkscape:window-height="573"
     inkscape:window-x="220"
     inkscape:window-y="220" />
  <metadata
     id="metadata11933">
    <rdf:RDF>
      <cc:Work
         rdf:about="">
        <dc:format>image/svg+xml</dc:format>
        <dc:type
           rdf:resource="http://purl.org/dc/dcmitype/StillImage" />
      </cc:Work>
    </rdf:RDF>
  </metadata>
  <g
     inkscape:label="Ebene 1"
     inkscape:groupmode="layer"
     id="layer1"
     transform="translate(-50.43002,-263.6528)">
    <path
       id="path11860"
       style="fill:black;fill-rule:nonzero;stroke:none"
       d="M 548.95786,334.55428 L 548.95786,312.86108 L 424.75905,312.86108 L 424.75905,454.38672 L 414.01641,454.38672 L 414.01641,302.18776 L 559.63117,302.18776 L 559.63117,345.29692 L 472.51186,345.29692 L 472.51186,273.63312 L 483.2545,273.63312 L 483.2545,334.55428M 548.95786,404.62404 L 548.95786,382.93079 L 483.2545,382.93079 L 483.2545,375.72283 L 472.51186,375.72283 L 472.51186,372.25748 L 559.63117,372.25748 L 559.63117,415.36668 L 472.51186,415.36668 L 472.51186,372.25748 L 483.2545,372.25748 L 483.2545,404.62404M 355.45169,404.62404 L 355.45169,312.86108 L 301.25334,312.86108 L 301.25334,302.18776 L 366.19433,302.18776 L 366.19433,415.36668 L 296.74839,415.36668 L 296.74839,273.63312 L 307.4217,273.63312 L 307.4217,404.62404M 161.11386,380.78227 L 179.06451,380.78227 L 162.77727,341.3464 L 146.4207,380.78227 L 185.71798,380.78227 L 183.0843,391.52491 L 130.4107,391.52491 L 162.84654,313.27692 L 195.14378,391.52491 L 158.75742,391.52491M 791.39503,380.78227 L 809.34563,380.78227 L 793.05838,341.3464 L 776.70187,380.78227 L 815.9991,380.78227 L 813.43474,391.52491 L 760.69187,391.52491 L 793.12771,313.27692 L 825.42495,391.52491 L 789.03854,391.52491M 607.7305,345.36624 L 639.33466,345.36624 C 651.25555,345.36624 660.88927,335.73252 660.88927,323.81164 C 660.88927,311.89075 651.25555,302.25703 639.33466,302.25703 L 607.7305,302.25703 L 607.7305,312.99967 L 639.33466,312.99967 C 645.36437,312.99967 650.21589,317.85119 650.21589,323.81164 C 650.21589,329.84135 645.36437,334.69287 639.33466,334.69287 L 618.47314,334.69287 L 618.47314,307.94023 L 607.7305,307.94023M 698.45381,359.50491 C 704.27566,364.35643 709.05786,370.10896 712.93906,376.69316 L 759.65222,263.65283 L 826.46455,263.65283 L 905.19771,454.52532 L 839.91014,454.52532 L 828.1279,426.04 L 822.65262,426.04 L 821.89027,415.36668 L 835.26659,415.36668 L 847.04883,443.852 L 889.25698,443.852 L 819.25659,274.39547 L 766.72158,274.39547 L 710.99846,409.40624 C 710.99846,386.11896 696.3053,366.22776 675.72102,358.53464 C 695.05778,354.5148 709.3351,337.4652 709.3351,316.95019 C 709.3351,293.45499 690.27559,274.39547 666.78038,274.39547 L 662.76054,274.3262 L 249.0649,274.3262 L 249.0649,419.66372 L 188.97542,274.39547 L 136.44047,274.39547 L 66.509348,443.852 L 108.78683,443.852 L 120.63839,415.36668 L 204.98542,415.36668 L 216.76771,443.852 L 607.52258,443.852 L 607.52258,372.25748 L 631.98805,372.25748 C 647.92878,372.25748 660.88927,385.14863 660.88927,401.15863 L 660.88927,443.852 L 739.06794,443.852 L 750.9195,415.36668 L 823.27638,415.36668 L 824.10811,426.04 L 757.98886,426.04 L 746.20663,454.52532 L 650.14663,454.52532 L 650.14663,401.15863 C 650.14663,391.10907 642.03767,382.93079 631.98805,382.93079 L 618.26522,382.93079 L 618.26522,454.52532 L 209.62902,454.52532 L 197.84679,426.04 L 127.70775,426.04 L 115.92546,454.52532 L 50.430023,454.52532 L 129.3711,263.65283 L 196.18338,263.65283 L 238.39159,365.60395 L 238.39159,263.65283 L 666.78038,263.65283 C 696.23603,263.65283 720.07774,287.4946 720.07774,316.95019 C 720.07774,333.79187 712.3153,348.76227 700.18655,358.53464 C 700.18655,358.53464 699.07763,359.29699 698.45381,359.50491" />
    <path
       id="path11880"
       class="ps00"
       d="M 936.24738,437.54499 C 936.24738,436.3668 935.90087,435.60439 935.20779,435.25788 C 934.5147,434.84204 933.40578,434.63412 931.88102,434.63412 L 929.52459,434.63412 L 929.52459,440.31732 L 932.01967,440.31732 C 933.19786,440.31732 934.02954,440.17867 934.58403,439.97075 C 935.69295,439.55491 936.24738,438.72324 936.24738,437.54499 M 932.22759,432.76279 C 934.16819,432.76279 935.5543,432.97071 936.4553,433.31728 C 938.11871,434.01036 938.88106,435.32721 938.88106,437.2678 C 938.88106,438.65391 938.3959,439.69356 937.3563,440.38659 C 936.80187,440.73316 936.10879,441.0104 935.13846,441.149 C 936.31671,441.35692 937.21771,441.84208 937.77214,442.67376 C 938.32663,443.50543 938.67314,444.33711 938.67314,445.09952 L 938.67314,446.20844 C 938.67314,446.62428 938.67314,446.97079 938.67314,447.38669 C 938.74247,447.80252 938.74247,448.07971 938.81179,448.21836 L 938.95039,448.42628 L 936.31671,448.42628 C 936.31671,448.35696 936.31671,448.28763 936.31671,448.21836 C 936.24738,448.21836 936.24738,448.14904 936.24738,448.07971 L 936.17811,447.5946 L 936.17811,446.34703 C 936.17811,444.54503 935.69295,443.36684 934.72262,442.74308 C 934.16819,442.39651 933.12854,442.25792 931.67311,442.25792 L 929.52459,442.25792 L 929.52459,448.42628 L 926.75231,448.42628 L 926.75231,432.76279 L 932.22759,432.76279 z M 932.50478,428.39644 C 929.10875,428.39644 926.26715,429.57468 923.84139,432.00044 C 921.48495,434.35688 920.30671,437.2678 920.30671,440.66383 C 920.30671,444.05992 921.48495,446.97079 923.84139,449.39655 C 926.26715,451.75304 929.10875,453.00056 932.50478,453.00056 C 935.90087,453.00056 938.74247,451.75304 941.16823,449.39655 C 943.52467,446.97079 944.70291,444.05992 944.70291,440.66383 C 944.70291,437.2678 943.52467,434.35688 941.16823,432.00044 C 938.74247,429.57468 935.90087,428.39644 932.50478,428.39644 M 946.71283,440.59457 C 946.71283,444.54503 945.32667,447.94112 942.55434,450.71339 C 939.78206,453.48572 936.4553,454.87183 932.50478,454.87183 C 928.55426,454.87183 925.2275,453.48572 922.45522,450.71339 C 919.68295,447.94112 918.29679,444.61436 918.29679,440.59457 C 918.29679,436.71331 919.68295,433.38655 922.45522,430.61428 C 925.2275,427.842 928.55426,426.45584 932.50478,426.45584 C 936.4553,426.45584 939.78206,427.842 942.55434,430.61428 C 945.32667,433.38655 946.71283,436.71331 946.71283,440.59457"
       style="fill:black;fill-rule:nonzero;stroke:none" />
  </g>
</svg>
