<svg width="172" height="26" viewBox="0 0 172 26" fill="none" xmlns="http://www.w3.org/2000/svg">
<g clip-path="url(#clip0_1289_529)">
<path d="M15.4846 18.6562H7.1752L4.83278 22.9197H0L11.1696 3.10547H16.5942L21.205 22.9197H16.3476L15.4846 18.6562ZM9.19707 15.0088H14.7449L13.2408 7.714H13.1915L9.19707 15.0088Z" fill="black"/>
<path d="M24.9785 22.9189L28.11 3.08008H37.3563C41.696 3.08008 44.0384 5.19951 44.0384 8.72368C44.0384 12.1739 41.7453 14.4412 39.1316 15.3284L42.4603 22.9189H37.455L34.5454 16.0678H30.7976L29.7127 22.9189H24.9785ZM35.2605 12.3711C38.1454 12.3711 39.3536 11.0896 39.3536 9.14264C39.3536 7.61467 38.4166 6.77676 36.1481 6.77676H32.2523L31.3647 12.3464H35.2605V12.3711Z" fill="black"/>
<path d="M53.8012 6.77676H46.9219L47.5136 3.08008H66.0311L65.4886 6.77676H58.5847L56.045 22.9189H51.2369L53.8012 6.77676Z" fill="black"/>
<path d="M69.9283 3.08008H84.9445L84.3773 6.77676H74.046L73.3803 11.1142H82.4294L81.813 14.8109H72.7885L72.0981 19.1976H82.5527L81.9856 22.9189H66.7969L69.9283 3.08008Z" fill="black"/>
<path d="M86.7188 22.9197L89.8502 3.10547H99.1212C103.461 3.10547 105.803 5.2249 105.803 8.74907C105.803 12.1993 103.51 14.4666 100.897 15.3538L104.201 22.9197H99.1952L96.2857 16.0685H92.5378L91.4529 22.9197H86.7188ZM97.0007 12.3718C99.8856 12.3718 101.094 11.0903 101.094 9.14338C101.094 7.61542 100.157 6.77751 97.8884 6.77751H93.9926L93.1049 12.3472H97.0007V12.3718Z" fill="black"/>
<path d="M116.75 3.08008L113.594 22.9189H108.811L111.942 3.08008H116.75Z" fill="black"/>
<path d="M123.656 16.8079C123.779 18.9766 125.678 19.8145 127.7 19.8145C130.091 19.8145 131.62 18.7548 131.62 17.1283C131.62 16.0932 130.831 15.625 128.957 15.206L125.505 14.4667C122.99 13.8998 120.919 12.3965 120.919 9.6117C120.919 5.42212 124.593 2.78516 129.401 2.78516C134.53 2.78516 137.143 5.24961 137.242 8.87236H132.804C132.73 7.27046 131.398 6.23539 129.154 6.23539C126.911 6.23539 125.604 7.31975 125.604 8.82307C125.604 9.93208 126.442 10.3757 128.168 10.77L131.817 11.5833C134.727 12.224 136.354 13.752 136.354 16.2657C136.354 20.4799 132.532 23.2894 127.576 23.2894C122.522 23.2894 119.094 21.0221 119.045 16.8572H123.656V16.8079Z" fill="black"/>
<path fill-rule="evenodd" clip-rule="evenodd" d="M145.92 0H171.933V26H145.92V0ZM153.565 19.346L155.586 6.65405H152.504L150.482 19.346H153.565ZM158.964 19.346L159.63 15.0578V15.0825H162.367C165.77 15.0825 168.063 13.382 168.063 10.2522C168.063 7.91092 166.386 6.65405 163.625 6.65405H157.953L155.932 19.346H158.964ZM164.981 10.5479C164.981 11.8294 164.241 12.692 162.367 12.692H160L160.592 9.01993H162.959C164.389 9.01993 164.981 9.56211 164.981 10.5479Z" fill="#FE5000"/>
</g>
<defs>
<clipPath id="clip0_1289_529">
<rect width="172" height="26" fill="white"/>
</clipPath>
</defs>
</svg>
