<?xml version="1.0" encoding="UTF-8"?>
<svg id="Layer_1" data-name="Layer 1" xmlns="http://www.w3.org/2000/svg" viewBox="0 0 6330.77 1243.48">
  <defs>
    <style>
      .cls-1 {
        fill: #231f20;
      }

      .cls-2 {
        fill: #f4be18;
      }
    </style>
  </defs>
  <g>
    <polygon class="cls-2" points="17.04 1214.05 719.25 335 1421.44 1214.05 719.25 29.43 17.04 1214.05"/>
    <polygon class="cls-2" points="2026.08 29.77 1395.43 470.69 1025.08 29.43 1277.87 558.93 1151.01 690.01 1217.08 801.41 1362.09 697.09 1791.22 1214.05 1481.49 588.39 2026.08 29.77"/>
    <polygon class="cls-2" points="644.28 1213.72 1109.49 878.88 1045.65 798.93 644.28 1213.72"/>
  </g>
  <g>
    <g>
      <path class="cls-1" d="M2279.53,898.73h-46.12l-6.32,14.68h-24.79l50.42-114.85h7.71l50.24,114.85h-24.79l-6.35-14.68ZM2256.51,841.63l-15.1,38.13h30.13l-15.03-38.13Z"/>
      <path class="cls-1" d="M2485.99,913.41l-29.21-39.82h-16.92v39.82h-23.11v-112.82h42.42c23.61,0,40.69,14.73,40.69,36.44,0,14.34-7.52,25.99-19.82,32.1l31.98,44.29h-26.05ZM2439.87,853.26h19.31c10.78,0,17.09-6.51,17.09-16.24s-6.69-16.08-17.09-16.08h-19.31v32.32Z"/>
      <path class="cls-1" d="M2638.09,821.46h-36.03v-20.87h95.41v20.87h-36.29v91.95h-23.1v-91.95Z"/>
      <path class="cls-1" d="M2803.34,800.59h23.1v112.82h-23.1v-112.82Z"/>
      <path class="cls-1" d="M2942.89,800.59h74.24v20.87h-51.14v28.22h41.88v20.84h-41.88v42.9h-23.11v-112.82Z"/>
      <path class="cls-1" d="M3125.11,800.59h23.11v112.82h-23.11v-112.82Z"/>
      <path class="cls-1" d="M3318.32,798.57c21.39,0,39.68,10.41,49.81,28l-17.49,12.33c-7.98-12.64-18.78-19-32.32-19-20.99,0-36.4,15.75-36.4,37.27s15.41,36.94,36.4,36.94c13.54,0,24.33-6.33,32.32-18.98l17.49,12.32c-9.79,17.61-28.25,28.02-49.98,28.02-32.99.69-60.64-26.13-60.02-58.46-.45-32.3,27.36-59.15,60.18-58.44Z"/>
      <path class="cls-1" d="M3478.49,800.59h23.11v112.82h-23.11v-112.82Z"/>
      <path class="cls-1" d="M3684.58,898.73h-46.18l-6.33,14.68h-24.82l50.46-114.85h7.72l50.24,114.85h-24.77l-6.33-14.68ZM3661.49,841.63l-15.03,38.13h30.04l-15.01-38.13Z"/>
      <path class="cls-1" d="M3821.77,800.59h23.1v91.98h49.37v20.84h-72.47v-112.82Z"/>
      <path class="cls-1" d="M4132.1,800.59h23.06v112.82h-23.06v-112.82Z"/>
      <path class="cls-1" d="M4367.72,800.59v114.88h-7.72l-65.26-69.74v67.68h-23.1v-114.85h7.53l65.47,69.39v-67.37h23.06Z"/>
      <path class="cls-1" d="M4509.71,821.46h-36.02v-20.87h95.35v20.87h-36.23v91.95h-23.1v-91.95Z"/>
      <path class="cls-1" d="M4674.97,800.59h75.93v20.87h-52.82v22.91h38.76v19.65h-38.76v28.55h54.83v20.84h-77.94v-112.82Z"/>
      <path class="cls-1" d="M4863.64,800.59h23.1v91.98h49.42v20.84h-72.52v-112.82Z"/>
      <path class="cls-1" d="M5043.91,800.59h23.13v91.98h49.39v20.84h-72.52v-112.82Z"/>
      <path class="cls-1" d="M5224.22,800.59h23.1v112.82h-23.1v-112.82Z"/>
      <path class="cls-1" d="M5417.63,798.57c19.88,0,36.57,8.87,47.51,24.44l-16.4,13.52c-8.02-11.13-18.43-16.62-31.45-16.62-21.54,0-36.24,15.56-36.24,37.1s15.25,37.79,37.62,37.79c12.99,0,23.45-5.31,29.76-14.02v-9.24h-31.15v-19.98h54.21v33.34c-5.14,9.07-12.47,16.57-22.04,22.23-9.39,5.62-20,8.35-31.83,8.35-33.16.69-60.84-26.13-60.35-58.46-.67-32.49,27.03-58.98,60.35-58.44Z"/>
      <path class="cls-1" d="M5582.23,800.59h75.9v20.87h-52.8v22.91h38.8v19.65h-38.8v28.55h54.88v20.84h-77.98v-112.82Z"/>
      <path class="cls-1" d="M5867,800.59v114.88h-7.7l-65.31-69.74v67.68h-23.11v-114.85h7.53l65.48,69.39v-67.37h23.11Z"/>
      <path class="cls-1" d="M6037.2,798.57c21.35,0,39.66,10.41,49.74,28l-17.44,12.33c-8.02-12.64-18.8-19-32.3-19-21.04,0-36.4,15.75-36.4,37.27s15.36,36.94,36.4,36.94c13.5,0,24.28-6.33,32.3-18.98l17.44,12.32c-9.74,17.61-28.22,28.02-49.93,28.02-32.99.69-60.72-26.13-60-58.46-.5-32.3,27.35-59.15,60.19-58.44Z"/>
      <path class="cls-1" d="M6197.32,800.59h75.93v20.87h-52.82v22.91h38.74v19.65h-38.74v28.55h54.83v20.84h-77.94v-112.82Z"/>
    </g>
    <g>
      <path class="cls-1" d="M4098.15,684.72c-2.91,0-4.44-1.47-4.44-4.4v-347.93c0-2.99,1.52-4.41,4.44-4.41h58.7c2.93,0,4.47,1.42,4.47,4.41v280.36c0,2.97,1.42,4.4,4.33,4.4h277.04c2.56,0,3.53,1.34,2.84,3.93l-19.57,61.64c-.62,1.36-1.59,1.99-2.91,1.99h-324.91Z"/>
      <path class="cls-1" d="M2457.75,329.92c-.66-1.27-1.81-1.93-3.45-1.93h-73.39c-.97,0-2.1.66-3.41,1.93l-174.72,349.43c-.64,1.29-.64,2.58,0,3.9.62,1.3,1.77,1.97,3.45,1.97h67.04c1.26,0,2.44-.84,3.41-2.49l139.97-279.38c.97-1.66,1.77-1.66,2.49,0,0,0,74.58,149.15,74.11,149.99-.51.8,65.8,129.4,65.8,129.4.63,1.66,1.81,2.49,3.45,2.49h67.08c1.26,0,2.31-.67,3.16-1.97.8-1.32.88-2.61.2-3.9l-175.17-349.43Z"/>
      <path class="cls-1" d="M2914.3,328.46c-.25-.32-.76-.48-1.47-.48h-91.49c-.93,0-1.58.4-1.95,1.24-.33.78-.16,1.53.51,2.16l170.42,163.22,48.72-46.75-124.75-119.39Z"/>
      <path class="cls-1" d="M3290.19,331.38c.67-.63.82-1.38.53-2.16-.37-.84-.89-1.24-1.52-1.24h-91.93c-.69,0-1.02.16-1.02.48l-97.53,93.38h0l-94.29,90.58v.03l-175.72,168.86c-.68.62-.84,1.37-.5,2.19.33.8.84,1.22,1.48,1.22h91.98c.34,0,.64-.17.97-.5l130.71-125.29c.63-.64,1.25-.96,1.97-.96.65,0,1.27.32,1.9.96l130.18,125.29c.33,0,.6.08.77.25.17.18.42.25.69.25h91.57c.97,0,1.64-.42,1.97-1.22.3-.82.13-1.57-.52-2.19l-175.68-168.84c-1.64-1.32-1.64-2.78,0-4.41l184-176.68Z"/>
      <g>
        <path class="cls-1" d="M3657.99,395.98h195.94c1.34,0,2.41-.49,3.14-1.42.8-1,.94-2.13.32-3.48l-19.16-60.16c-.64-1.64-1.77-2.46-3.36-2.46h-327.87c-3.97,0-5.89,1.78-5.89,5.39v62.13h156.89Z"/>
        <path class="cls-1" d="M3853.92,616.22h-279.94c-1.64,0-2.9-.58-3.92-1.72-.95-1.15-1.42-2.54-1.42-4.19v-67.01c0-2.25,1.07-3.43,3.42-3.43h189.86c1.99,0,3.3-.99,3.92-2.95l19.11-60.18c.28-.99.12-1.97-.55-2.95-.64-.96-1.61-1.47-2.89-1.47h-280.41v205.55c0,3.6,1.92,5.37,5.89,5.37h327.87c1.59,0,2.73-.8,3.36-2.44l19.16-60.18c.62-1,.48-1.98-.32-2.96-.74-1-1.81-1.45-3.14-1.45Z"/>
      </g>
      <g>
        <path class="cls-1" d="M4822.66,395.98h195.97c1.32,0,2.38-.49,3.18-1.42.8-1,.94-2.13.25-3.48l-19.1-60.16c-.67-1.64-1.77-2.46-3.4-2.46h-327.92c-3.95,0-5.87,1.78-5.87,5.39v62.13h156.89Z"/>
        <path class="cls-1" d="M5018.62,616.22h-279.92c-1.64,0-2.96-.58-3.93-1.72-.95-1.15-1.46-2.54-1.46-4.19v-67.01c0-2.25,1.12-3.43,3.43-3.43h189.88c1.94,0,3.3-.99,3.92-2.95l19.1-60.18c.34-.99.1-1.97-.5-2.95-.62-.96-1.59-1.47-2.89-1.47h-280.47v205.55c0,3.6,1.92,5.37,5.87,5.37h327.92c1.62,0,2.73-.8,3.4-2.44l19.1-60.18c.69-1,.55-1.98-.25-2.96-.8-1-1.86-1.45-3.18-1.45Z"/>
      </g>
      <path class="cls-1" d="M6099.68,329.92c-.67-1.27-1.79-1.93-3.5-1.93h-73.34c-.97,0-2.09.66-3.42,1.93l-174.73,349.43c-.69,1.29-.69,2.58,0,3.9.64,1.3,1.77,1.97,3.45,1.97h67c1.32,0,2.49-.84,3.46-2.49l139.95-279.38c.97-1.66,1.79-1.66,2.46,0,0,0,74.61,149.15,74.11,149.99-.47.8,65.82,129.4,65.82,129.4.62,1.66,1.81,2.49,3.43,2.49h67.05c1.31,0,2.31-.67,3.15-1.97.8-1.32.94-2.61.27-3.9l-175.17-349.43Z"/>
      <path class="cls-1" d="M5641.65,680.81l-119.9-130.65c-1-1-.84-1.49.45-1.49,15.72-.33,30.24-3.19,43.82-8.58,13.56-5.36,25.21-12.79,35.03-22.24,9.74-9.48,17.42-20.58,22.95-33.29,5.57-12.72,8.32-26.61,8.32-41.58s-2.86-28.94-8.55-42.85c-5.72-13.87-13.54-26.18-23.48-36.93-9.96-10.78-21.71-19.32-35.28-25.69-13.51-6.36-28.23-9.53-44.25-9.53h-275.05c-1.98,0-2.96.96-2.96,2.94v65.06h69.02c.45-.22.82-.49,1.42-.49h207.57c5.56,0,10.89,1.33,16.1,3.91,5.27,2.64,9.98,6.04,14.24,10.3,4.25,4.23,7.6,9.2,10.03,14.9,2.48,5.72,3.7,11.86,3.7,18.38s-1.34,12.21-3.92,17.12c-2.66,4.89-6.08,8.89-10.33,11.97-4.25,3.11-8.94,5.41-14.18,6.86-5.17,1.47-10.43,2.19-15.65,2.19h-278.01v200.19c0,1.94.99,2.91,2.96,2.91h61.69c1.91,0,2.91-.97,2.91-2.91v-129.7c0-1.93.97-2.94,2.88-2.94h119.98c.64,0,1.32.36,1.92,1l123.35,134.04c.65.67,1.27,1,1.96,1h79.26c.99,0,1.74-.5,2.24-1.47.47-1,.39-1.77-.25-2.44Z"/>
    </g>
  </g>
</svg>