<svg width="175" height="28" viewBox="0 0 175 28" fill="none" xmlns="http://www.w3.org/2000/svg">
<path d="M11.5855 4.00905H0V0.346344H11.5855V4.00905ZM163.325 0.346344V4.00905H174.909V0.346344H163.325ZM68.3036 4.00905H85.3694V0.346344H68.3036V4.00905ZM68.3036 9.96616H74.7995V17.6588H78.8735V9.96616H85.3694V6.30536H68.3036V9.96616ZM0 6.30536V17.6588H4.09196V9.96616H11.5855V6.30536H0ZM163.325 17.6588H174.909V13.9942H167.416V9.96616H174.909V6.30536H163.325V17.6588ZM25.6119 11.4512L29.7776 17.6588H25.07L21.397 11.9702H18.4389V17.6588H14.3961V0.346344H23.0235C26.8687 0.346344 29.1364 3.31446 29.1364 6.18295C29.1364 8.40904 27.9042 10.5108 25.6119 11.4512ZM25.1674 6.18295C25.1674 4.99589 24.1565 4.0062 22.8996 4.0062H18.4379V8.38342H22.7266C24.181 8.38342 25.1664 7.39373 25.1664 6.182L25.1674 6.18295ZM48.5881 9.00209C48.5881 14.1213 44.7184 18.0042 39.4434 18.0042C34.1684 18.0042 30.2986 14.1213 30.2986 9.00209C30.2986 3.88285 34.1684 0 39.4434 0C44.7184 0 48.5881 3.88285 48.5881 9.00209ZM44.447 9.00209C44.447 6.05865 42.4752 3.78321 39.4434 3.78321C36.4115 3.78321 34.4398 6.05865 34.4398 9.00209C34.4398 11.9455 36.4115 14.221 39.4434 14.221C42.4752 14.221 44.447 11.9702 44.447 9.00209ZM61.6877 10.2641L53.9236 0.346344H50.5958V17.6588H54.6877V7.74102L62.4518 17.6588H65.7796V0.346344H61.6877V10.2641ZM119.388 11.4512L123.554 17.6588H118.846L115.173 11.9702H112.215V17.6588H108.173V0.346344H116.8C120.645 0.346344 122.913 3.31446 122.913 6.18295C122.913 8.40904 121.681 10.5108 119.388 11.4512ZM118.945 6.18295C118.945 4.99589 117.934 4.0062 116.677 4.0062H112.215V8.38342H116.504C117.958 8.38342 118.944 7.39373 118.944 6.182L118.945 6.18295ZM136.428 0.346344L142.812 17.6588H138.597L137.389 14.3443H130.093L128.886 17.6588H124.671L131.053 0.346344H136.427H136.428ZM136.082 10.7585L133.741 4.27853L131.399 10.7585H136.082ZM160.768 9.00209C160.768 14.0227 157.539 17.6588 152.61 17.6588H144.648V0.346344H152.61C157.466 0.346344 160.768 3.85818 160.768 9.00304V9.00209ZM156.627 8.92808C156.627 5.88595 154.828 4.03087 152.511 4.03087H148.69V13.9733H152.511C154.828 13.9733 156.627 11.9702 156.627 8.92808ZM97.2897 11.3278H101.825C101.505 12.7625 100.149 14.1963 97.6594 14.1963C94.0365 14.1963 92.1877 11.6732 92.1877 8.97742C92.1877 6.28163 94.2087 3.85818 97.1913 3.85818C99.2718 3.85818 100.547 4.62962 101.381 5.83945H105.704C105.671 5.69902 105.622 5.54055 105.548 5.36691C104.488 2.49842 101.556 0 97.1431 0C91.992 0 88.0475 3.88285 88.0475 9.00209C88.0475 14.1213 91.9665 18.0042 97.3398 18.0042C102.713 18.0042 106.115 14.5417 106.115 9.86748V7.81504H97.2906V11.3269L97.2897 11.3278Z" fill="#303030"/>
<path d="M11.5855 0.346436H0V4.00914H11.5855V0.346436Z" fill="#E35530"/>
<path d="M85.3694 0.346436H68.3037V4.00914H85.3694V0.346436Z" fill="#E35530"/>
<path d="M174.909 0.346436H163.325V4.00914H174.909V0.346436Z" fill="#E35530"/>
<path d="M144.434 22.4887C144.065 21.833 143.474 21.5047 142.662 21.5047C141.513 21.5047 140.733 22.2449 140.733 23.8959C140.733 25.3667 141.387 26.2871 142.662 26.2871C143.348 26.2871 144.243 25.8848 144.329 24.9226H142.662V23.4623H145.91V27.6621H144.454V26.9845C143.959 27.5453 143.199 27.8737 142.272 27.8737C140.005 27.8737 138.856 26.2131 138.856 23.9272C138.856 21.6414 140.089 19.9172 142.536 19.9172C144.022 19.9172 145.245 20.5625 145.994 21.8008L144.434 22.4887Z" fill="#E35530"/>
<path d="M151.93 26.4881C151.93 26.8791 151.941 27.3136 152.078 27.6628H150.559C150.485 27.4617 150.464 27.2823 150.453 27.0812H150.432C150.158 27.5252 149.335 27.8109 148.745 27.8109C147.68 27.8109 146.868 27.2083 146.868 26.1389C146.868 24.7849 147.943 24.3085 149.747 24.0552L150.347 23.9707V23.5048C150.347 23.0816 150.02 22.9023 149.567 22.9023C149.029 22.9023 148.787 23.093 148.703 23.6538H147.121C147.174 22.035 148.671 21.887 149.431 21.887C150.96 21.887 151.929 22.2466 151.929 23.5162V26.4891L151.93 26.4881ZM150.349 24.9225L149.242 25.2403C148.83 25.357 148.451 25.5155 148.451 25.97C148.451 26.4245 148.809 26.6048 149.221 26.6048C149.864 26.6048 150.349 26.1712 150.349 25.3143V24.9225Z" fill="#E35530"/>
<path d="M153.449 21.3993V20.1296H155.093V21.3993H153.449ZM155.093 22.0341V27.6629H153.449V22.0341H155.093Z" fill="#E35530"/>
<path d="M160.207 23.6947C159.869 23.3028 159.173 23.0912 158.657 23.0912C158.245 23.0912 157.95 23.2393 157.95 23.5249C157.95 24.4984 161.271 23.6833 161.271 25.7994C161.271 27.2806 159.964 27.8091 158.741 27.8091C157.518 27.8091 156.822 27.4599 155.999 26.698L157.022 25.8088C157.527 26.3061 158.033 26.6021 158.793 26.6021C159.077 26.6021 159.689 26.5385 159.689 26.0309C159.689 25.1532 156.368 25.8506 156.368 23.8513C156.368 22.4337 157.601 21.8833 158.741 21.8833C159.616 21.8833 160.459 22.1898 161.218 22.6974L160.207 23.6919V23.6947Z" fill="#E35530"/>
<path d="M162.432 27.6619V20.1296H164.076V27.6619H162.432Z" fill="#E35530"/>
<path d="M166.797 25.1865C166.797 26.2653 167.504 26.6041 168.02 26.6041C168.632 26.6041 168.916 26.2872 169.391 25.6097L170.624 26.2549C170.045 27.3129 169.169 27.8101 167.904 27.8101C166.163 27.8101 165.152 26.6041 165.152 25.0176C165.152 23.0183 166.185 21.8862 167.904 21.8862C169.949 21.8862 170.655 23.4519 170.655 25.1874H166.796L166.797 25.1865ZM169.011 24.1712C168.958 23.357 168.368 23.0923 167.893 23.0923C167.418 23.0923 166.86 23.431 166.775 24.1712H169.011Z" fill="#E35530"/>
<path d="M171.805 22.0341H173.45V22.6053C173.819 22.2665 174.398 22.0549 174.99 22.0132L175 23.4735L174.82 23.4944C173.84 23.6111 173.45 23.78 173.45 24.4044V27.6629H171.805V22.0341Z" fill="#E35530"/>
</svg>
