<?xml version="1.0" encoding="UTF-8"?>
<svg id="Layer_1" data-name="Layer 1" xmlns="http://www.w3.org/2000/svg" version="1.1"  width="245px" height="44px" viewBox="0 0 245 44">
  <defs>
    <style>
      .cls-1 {
        fill: #fff;
        stroke-width: 0px;
      }
    </style>
  </defs>
  <polygon class="cls-1" points="74.48 13.23 70.2 17.51 70.2 36.71 74.48 36.71 74.48 13.23"/>
  <path class="cls-1" d="M81.3,27.95c0-1.88,0-5.56,3.36-5.56,2.61,0,3.53,2.17,3.53,4.58v9.77h4.23v-8.79c0-1.11-.03-2.86.64-3.91.59-1.01,1.72-1.65,2.91-1.65,3.32,0,3.32,3.56,3.32,4.58v9.77h4.23v-10.28c0-2.61-.63-4.29-1.34-5.21-.63-.89-2.35-2.74-5.8-2.74-1.23,0-3.84.12-5.69,2.76-1.64-2.54-4.12-2.76-5.08-2.76-3.05,0-4.26,1.52-4.6,2.1h-.06v-1.5h-3.88v17.62h4.22v-8.79Z"/>
  <path class="cls-1" d="M113.91,37.31c2.22,0,4.81-1.17,6.15-2.76v2.19h3.88v-17.62h-3.88v2.23h-.06c-.12-.27-2.26-2.83-5.85-2.83-4.88,0-8.82,3.91-8.82,9.31,0,5.87,4.03,9.48,8.58,9.48ZM114.8,22.38c2.5,0,5.15,1.85,5.15,5.5,0,3.27-2.23,5.55-5.15,5.55s-5.23-2.45-5.23-5.43c0-2.62,1.77-5.63,5.23-5.63Z"/>
  <path class="cls-1" d="M134.81,37.31c3.59,0,5.21-2.02,5.78-2.83l.06.07c-.23,3.84-3.02,5.49-5.39,5.49-.68,0-2.7,0-4.36-1.96h-4.81c1.51,3.94,5.23,5.84,8.85,5.84,3.33,0,9.63-1.94,9.63-10.41v-14.38h-4.1v2.16h-.06c-.47-.71-2-2.76-5.62-2.76-4.47,0-8.98,3.72-8.98,9.24,0,5.9,4.73,9.55,9.01,9.55ZM135.17,22.39c3.14,0,5.17,2.86,5.17,5.37,0,3.52-2.49,5.68-5.05,5.68s-5.26-2.07-5.26-5.65c0-3.33,2.6-5.4,5.15-5.4Z"/>
  <path class="cls-1" d="M158.21,28.33c0-1.47,0-3.32.76-4.4.76-1.17,2.13-1.55,2.89-1.55,3.56,0,3.56,4.19,3.56,5.66v8.69h4.22v-9.53c0-1.36,0-4.31-1.63-6.25-1.45-1.77-3.77-2.44-5.3-2.44-2.66,0-4.11,1.46-4.82,2.12v-1.52h-3.9v17.62h4.23v-8.39Z"/>
  <path class="cls-1" d="M180.08,37.29c2.22,0,4.82-1.17,6.16-2.76v2.19h3.88v-17.62h-3.88v2.23h-.06c-.13-.27-2.27-2.83-5.84-2.83-4.89,0-8.83,3.91-8.83,9.31,0,5.87,4.03,9.48,8.58,9.48ZM180.96,22.36c2.52,0,5.15,1.85,5.15,5.5,0,3.27-2.22,5.55-5.15,5.55s-5.23-2.45-5.23-5.43c0-2.62,1.77-5.63,5.23-5.63Z"/>
  <polygon class="cls-1" points="194.3 36.72 198.53 36.72 198.53 22.85 201.08 22.85 201.08 19.1 198.53 19.1 198.53 13.23 194.3 13.23 194.3 19.1 192.24 19.1 192.24 22.85 194.3 22.85 194.3 36.72"/>
  <path class="cls-1" d="M218.32,37.29c4.9,0,9.34-3.65,9.34-9.42,0-5.4-4.35-9.37-9.34-9.37s-9.39,4.1-9.39,9.43c0,5.04,4.16,9.36,9.39,9.36ZM218.32,22.37c2.64,0,5.13,2.38,5.13,5.59,0,2.8-2.04,5.46-5.13,5.46-2.66,0-5.18-2.17-5.18-5.49,0-3.69,2.99-5.56,5.18-5.56Z"/>
  <path class="cls-1" d="M233.57,28.33c0-1.47,0-3.32.76-4.4.76-1.17,2.13-1.55,2.89-1.55,3.56,0,3.56,4.19,3.56,5.66v8.69h4.22v-9.53c0-1.36,0-4.31-1.63-6.25-1.45-1.77-3.77-2.44-5.3-2.44-2.66,0-4.12,1.46-4.82,2.12v-1.52h-3.91v17.62h4.23v-8.39Z"/>
  <rect class="cls-1" x="147.13" y="19.1" width="4.26" height="17.63"/>
  <rect class="cls-1" x="202.96" y="19.1" width="4.26" height="17.63"/>
  <path class="cls-1" d="M16.93,33.94c4.09,0,7.84-1.46,10.77-3.87v-6.12c-2.28,3.53-6.25,5.88-10.77,5.88-7.07,0-12.82-5.75-12.82-12.82s5.75-12.82,12.82-12.82,12.78,5.71,12.82,12.75v23.94h31.83V9.05h-27.41c.6,1.3,1.07,2.68,1.36,4.11h21.93v23.61h-23.61v-19.68s0-.05,0-.08c0-.02,0-.05,0-.07v-.42c-.08-2.7-.78-5.24-1.98-7.48h0C29.01,3.72,23.39.08,16.93.08,7.59.08,0,7.68,0,17.01s7.59,16.93,16.93,16.93Z"/>
</svg>