<?xml version="1.0" encoding="UTF-8"?> <svg xmlns="http://www.w3.org/2000/svg" width="512" height="126" viewBox="0 0 512 126" fill="none"><g clip-path="url(#clip0_1685_2557)"><g clip-path="url(#clip1_1685_2557)"><path d="M-0.762695 110.361H18.7499V10.7647H-0.762695V110.361Z" fill="black"></path><path d="M115.813 25.5158C111.225 21.0069 105.946 17.4579 99.9633 14.8688C93.9563 12.2831 87.493 10.9869 80.5363 10.9869C73.7399 10.9869 67.3136 12.2831 61.245 14.8688C55.1764 17.4579 49.8972 21.0069 45.395 25.5158C40.8806 30.0282 37.3281 35.276 34.7379 41.265C32.1476 47.2546 30.8647 53.7251 30.8647 60.6738V110.583H50.6001V60.6738C50.6001 56.5358 51.3773 52.6539 52.9314 49.0293C54.4856 45.4065 56.6195 42.2284 59.3701 39.4903C62.0961 36.7558 65.2784 34.61 68.8925 33.0577C72.5188 31.5049 76.4042 30.7291 80.5363 30.7291C84.6807 30.7291 88.6032 31.5049 92.3036 33.0577C95.9916 34.61 99.211 36.7558 101.949 39.4903C104.688 42.2284 106.834 45.4065 108.388 49.0293C109.93 52.6539 110.707 56.5358 110.707 60.6738V110.583H130.454V60.6738C130.454 53.7251 129.159 47.2546 126.581 41.265C123.991 35.276 120.389 30.0282 115.813 25.5158Z" fill="black"></path><path d="M168.909 39.3792C171.864 36.423 175.195 34.2045 178.888 32.7247C182.582 31.2484 186.353 30.5069 190.202 30.5069C194.051 30.5069 197.823 31.2484 201.529 32.7247C205.223 34.2045 208.54 36.423 211.495 39.3792L218.597 46.2557L232.347 32.2812L225.479 25.4048C220.593 20.525 215.085 16.865 208.955 14.4249C202.812 11.9853 196.565 10.765 190.202 10.765C183.839 10.765 177.592 11.9853 171.462 14.4249C165.32 16.865 159.812 20.525 154.939 25.4048C150.053 30.2851 146.437 35.7572 144.066 41.819C141.707 47.8853 140.515 54.1304 140.515 60.5626C140.515 66.9959 141.707 73.2446 144.066 79.3062C146.437 85.3713 150.053 90.8414 154.939 95.7208C159.812 100.6 165.32 104.26 171.462 106.701C177.592 109.141 183.839 110.361 190.202 110.361C196.565 110.361 202.812 109.141 208.955 106.701C215.085 104.26 220.593 100.6 225.479 95.7208L232.347 88.8447L218.597 74.8708L211.495 81.7468C208.696 84.7067 205.43 86.9241 201.736 88.4009C198.043 89.881 194.207 90.619 190.202 90.619C181.921 90.619 174.832 87.6624 168.909 81.7468C165.942 78.7902 163.725 75.4628 162.248 71.7643C160.784 68.0703 160.032 64.2994 160.032 60.4521C160.032 56.6081 160.784 52.8372 162.248 49.14C163.725 45.4447 165.942 42.1897 168.909 39.3792Z" fill="black"></path><path d="M381.392 14.6473C375.335 17.2362 370.008 20.7852 365.427 25.2941C360.845 29.8072 357.262 35.0541 354.676 41.0432C352.076 47.0327 350.797 53.5032 350.797 60.4522V110.361H370.753V60.4522C370.753 56.3142 371.526 52.4319 373.086 48.8074C374.632 45.1846 376.768 42.0065 379.523 39.2685C382.249 36.5344 385.425 34.3883 389.051 32.836C392.677 31.2836 396.556 30.5072 400.688 30.5072H410.68V10.7653H400.688C393.9 10.7653 387.463 12.0616 381.392 14.6473Z" fill="black"></path><path d="M460.359 73.9814H488.913H503.953H509.881C511.04 69.7825 511.612 65.4233 511.612 60.8961C511.612 53.9475 510.321 47.4773 507.738 41.4873C505.141 35.4978 501.561 30.2505 496.968 25.7382C492.39 21.2289 487.108 17.68 481.122 15.0912C475.135 12.5051 468.664 11.2093 461.709 11.2093C454.901 11.2093 448.474 12.5051 442.414 15.0912C436.34 17.68 431.057 21.2289 426.553 25.7382C422.033 30.2505 418.483 35.4978 415.9 41.4873C413.318 47.4773 412.012 53.9475 412.012 60.8961C412.012 67.6995 413.318 74.133 415.9 80.1946C418.483 86.2597 422.033 91.5835 426.553 96.1653C431.057 100.75 436.34 104.338 442.414 106.923C448.474 109.512 454.901 110.805 461.709 110.805C468.664 110.805 475.135 109.512 481.122 106.923C487.108 104.338 492.39 100.75 496.968 96.1653C500.637 92.5143 503.63 88.3849 506.022 83.7927H481.459C479.111 85.8205 476.456 87.48 473.462 88.7344C469.765 90.2873 465.847 91.0636 461.709 91.0636C457.571 91.0636 453.654 90.2873 449.956 88.7344C446.244 87.1821 443.03 85.039 440.301 82.3015C437.557 79.5672 435.415 76.3511 433.874 72.6528C432.319 68.9578 431.541 65.0384 431.541 60.8961C431.541 56.7581 432.319 52.8765 433.874 49.2516C435.415 45.6301 437.557 42.4508 440.301 39.7126C443.03 36.978 446.244 34.8324 449.956 33.2801C453.654 31.7269 457.571 30.951 461.709 30.951C465.847 30.951 469.765 31.7269 473.462 33.2801C477.16 34.8324 480.373 36.978 483.117 39.7126C485.846 42.4508 487.988 45.6301 489.544 49.2516C490.63 51.7579 491.305 54.39 491.642 57.1418H460.359V73.9814Z" fill="black"></path><path d="M324.718 89.0601C316.44 98.8884 304.335 104.526 291.497 104.526C267.572 104.526 248.085 85.0532 248.085 61.1173C248.085 37.1824 267.572 17.7093 291.497 17.7093C303.969 17.7093 315.857 23.0817 324.094 32.4489C325.492 34.0347 327.907 34.1879 329.482 32.7925C331.069 31.3969 331.219 28.9803 329.834 27.3955C320.131 16.3784 306.154 10.0608 291.497 10.0608C263.352 10.0608 240.431 32.9646 240.431 61.1173C240.431 89.2705 263.352 112.174 291.497 112.174C306.601 112.174 320.837 105.546 330.567 93.9876C331.924 92.3722 331.721 89.9595 330.106 88.5992C328.477 87.2354 326.075 87.4455 324.718 89.0601Z" fill="black"></path><path d="M328.204 57.2933C326.101 57.2933 324.377 59.0062 324.377 61.1176C324.377 79.2488 309.639 93.9996 291.508 93.9996C273.377 93.9996 258.624 79.2488 258.624 61.1176C258.624 42.9864 273.377 28.2356 291.508 28.2356C293.611 28.2356 295.335 26.5236 295.335 24.4113C295.335 22.2994 293.611 20.5871 291.508 20.5871C269.156 20.5871 250.984 38.7691 250.984 61.1176C250.984 83.4662 269.156 101.648 291.508 101.648C313.846 101.648 332.032 83.4662 332.032 61.1176C332.032 59.0062 330.322 57.2933 328.204 57.2933Z" fill="#ED1C24"></path><path d="M289.111 41.8813C291.218 41.8813 292.937 40.1691 292.937 38.0571C292.937 35.9447 291.218 34.2328 289.111 34.2328C274.287 34.2328 262.222 46.2934 262.222 61.1177C262.222 75.9422 274.287 88.0029 289.111 88.0029C291.218 88.0029 292.937 86.2905 292.937 84.1785C292.937 82.0671 291.218 80.3543 289.111 80.3543C278.499 80.3543 269.874 71.7254 269.874 61.1177C269.874 50.5104 278.499 41.8813 289.111 41.8813Z" fill="#2D722B"></path></g></g><defs><clipPath id="clip0_1685_2557"><rect width="512" height="126" fill="white"></rect></clipPath><clipPath id="clip1_1685_2557"><rect width="513" height="102.436" fill="white" transform="translate(-1 10.0605)"></rect></clipPath></defs></svg> 