<svg xmlns="http://www.w3.org/2000/svg" id="Layer_2" viewBox="0 0 293.8 66.6"><defs><style>      .st0 {        fill: none;      }      .st1 {        fill: #231f20;      }      .st2 {        fill: #ff6012;      }    </style></defs><g id="Layer_1-2"><g><path class="st1" d="M256.2,55.9c.5-.2,1-.3,1.5-.3s1.3.2,1.8.5c.5.3,1,.8,1.3,1.3.3.6.5,1.2.5,2s-.2,1.4-.5,2-.7,1-1.3,1.4c-.5.3-1.1.5-1.8.5s-1.1-.1-1.5-.3c-.4-.2-.8-.5-1.1-.9v1.1h-1.5v-10h1.5v3.7c.3-.4.6-.7,1.1-.9ZM259.3,58c-.2-.4-.5-.7-.8-.9-.3-.2-.7-.3-1.1-.3s-.8,0-1.1.3c-.3.2-.6.5-.8.9s-.3.8-.3,1.3.1,1,.3,1.3.5.7.8.9c.3.2.7.3,1.1.3s.8-.1,1.1-.3.6-.5.8-.9c.2-.4.3-.8.3-1.4s-.1-1-.3-1.3Z"></path><path class="st1" d="M269.3,55.6l-4.6,10.9h-1.6l1.5-3.6-2.9-7.3h1.7l2.1,5.7,2.2-5.7h1.6Z"></path><path class="st1" d="M280.5,56.4c-.2-.5-.6-.8-1-1.1-.4-.2-.9-.4-1.5-.4s-1.2.1-1.7.4-.9.7-1.1,1.2c-.3.5-.4,1.1-.4,1.8s.1,1.3.4,1.8c.3.5.7.9,1.1,1.2s1,.4,1.7.4,1.5-.2,2-.7.8-1.1,1-1.9h-3.5v-1.2h5.2v1.2c0,.7-.4,1.4-.8,2s-1,1.1-1.6,1.5-1.4.5-2.2.5-1.7-.2-2.4-.6c-.7-.4-1.3-1-1.7-1.7s-.6-1.6-.6-2.5.2-1.7.6-2.5,1-1.3,1.7-1.7c.7-.4,1.5-.6,2.4-.6s1.9.2,2.7.7c.8.5,1.3,1.2,1.7,2.1h-1.9Z"></path><path class="st1" d="M289.5,53.7v1.3h-4v2.8h3.1v1.3h-3.1v4.1h-1.5v-9.4s5.5,0,5.5,0Z"></path></g><path class="st1" d="M253.3,12.2c1.8,1.5,2.7,3.5,2.7,6s0,1.4-.2,2c-.4,2.2-1.3,4.1-2.8,5.8-1.5,1.7-3.6,2.9-6.1,3.6l5.3,12.9h-9l-4.6-12.3h-1.9l-2.2,12.3h-8l5.8-32.7h13.4c3.4,0,6,.8,7.7,2.3h0ZM247.7,19.5c0-1-.3-1.8-1-2.3-.6-.5-1.6-.8-2.8-.8h-4.9l-1.4,8.2h4.9c1.5,0,2.6-.4,3.5-1.1.9-.7,1.4-1.7,1.7-3,0-.5,0-.8,0-1Z"></path><path class="st1" d="M262,17.5c1.8-2.5,4.1-4.5,6.9-5.9,2.7-1.4,5.7-2.1,8.8-2.1s7,1,9.4,3.1c2.4,2,3.8,4.8,4.1,8.4h-8.8c-.4-1.3-1.1-2.4-2.2-3.1-1.1-.7-2.4-1-3.9-1-2.5,0-4.6.8-6.4,2.5-1.8,1.7-2.9,4-3.4,6.8-.2.9-.2,1.6-.2,2.3,0,2.2.6,3.9,1.8,5.2,1.2,1.3,2.9,1.9,5,1.9s2.9-.4,4.3-1.1c1.3-.7,2.4-1.7,3.3-3.1h8.8c-1.6,3.5-3.9,6.3-7,8.4-3.1,2-6.6,3.1-10.5,3.1s-5.2-.5-7.3-1.6c-2.1-1.1-3.7-2.6-4.8-4.6-1.1-2-1.7-4.3-1.7-6.9s.1-2.3.3-3.4c.6-3.2,1.8-6.1,3.6-8.6h0Z"></path><path class="st0" d="M212.5,30.7l-1.9-12.1-6.3,12.3c.6.2,1.2.3,1.8.4,2.1.5,4.3.7,6.7.9l-.2-1.5s0,0,0,0Z"></path><path class="st0" d="M203.1,18.2s-2.3,1.1-3.5,1.6c-1.4.6-2.5,1.3-3.2,2.2,0,0,0,0,0,0,0,0,0,0,0,0-.8.9-1.2,1.9-1,2.9.2,1.1,1,2.1,2.5,3.1l6.2-11.5s-.8,1.6-.8,1.6Z"></path><path class="st1" d="M213.4,36.1v.7c.1,0,1,5.8,1,5.8h8.4l-1.4-7.3c-2.2.4-4.9.7-8.1.8Z"></path><path class="st1" d="M203.9,16.7l-6.2,11.5c.1,0,.2.2.4.3,1.5,1,3.6,1.8,6.2,2.5l6.3-12.3,1.9,12.1h0l.2,1.5c1.9.1,3.8.2,5.8.2.7,0,1.6,0,2.4,0l-4.2-22.6h-9.2l-3.5,6.6h0s-.1.2-.1.2Z"></path><path class="st1" d="M190,42.6h8.3l3-5.8.5-1c-2.9-.3-5.4-.8-7.5-1.4l-4.4,8.1Z"></path><path class="st2" d="M232.4,31.4c-2.4,1.3-7.3,1.2-11.4,1.1-.8,0-1.7,0-2.4,0-2,0-3.9,0-5.8-.2-2.3-.2-4.6-.4-6.7-.9-.6-.1-1.2-.3-1.8-.4-2.6-.7-4.7-1.5-6.2-2.5-.1,0-.3-.2-.4-.3-1.5-1-2.3-2.1-2.5-3.1-.2-1,.2-2,1-2.9,0,0,0,0,0,0,0,0,0,0,0,0,.8-.8,1.9-1.5,3.2-2.2,1.2-.6,3.5-1.6,3.5-1.6l.8-1.6v-.2c.1,0,.1,0,.1,0,0,0-11.6,3.3-15.1,5.8-5.6,4-4.1,9.5,5.4,12.2,2.1.6,4.6,1.1,7.5,1.4,2.8.3,6,.4,9.6.3.7,0,1.4,0,2,0,3.2-.2,5.9-.4,8.1-.8,5.8-1,8.6-2.6,10.9-3.9Z"></path><polygon class="st1" points="13.7 40.7 21.1 33.3 13.7 25.9 13.7 40.7 13.7 40.7"></polygon><polygon class="st2" points="39.9 8 33.8 8 33.8 0 39.9 8 39.9 8"></polygon><polygon class="st1" points="32 21.8 21.1 10.9 32 0 32 21.8 32 21.8"></polygon><polygon class="st2" points="0 9.7 1.4 8.3 23.7 30.6 22.3 32 0 9.7 0 9.7"></polygon><polygon class="st2" points="2.4 7.3 3.9 5.9 26.1 28.2 24.7 29.6 2.4 7.3 2.4 7.3"></polygon><polygon class="st2" points="4.9 4.9 6.3 3.4 28.6 25.7 27.2 27.2 4.9 4.9 4.9 4.9"></polygon><polygon class="st2" points="7.3 2.4 8.7 1 31 23.3 29.6 24.7 7.3 2.4 7.3 2.4"></polygon><path class="st1" d="M72.1,10v32.8h-9.1v-18.1l-6.2,18.1h-7.6l-6.2-18.2v18.2h-9.1V10h11l8.2,21.3,8-21.3h11,0Z"></path><path class="st1" d="M84.8,10v32.8h-9.1V10h9.1Z"></path><path class="st1" d="M112.9,26.3c-.9,1.6-2.3,2.9-4.1,3.9-1.8,1-4.1,1.5-6.8,1.5h-4.5v11.1h-9.1V10h13.6c2.6,0,4.9.5,6.7,1.4,1.8.9,3.2,2.2,4.2,3.9.9,1.6,1.4,3.5,1.4,5.7s-.5,3.8-1.4,5.4ZM105,20.9c0-2.4-1.3-3.6-3.9-3.6h-3.6v7.1h3.6c2.6,0,3.9-1.2,3.9-3.5h0Z"></path><path class="st1" d="M119.6,40.4c-2.4-1.8-3.8-4.4-4-7.8h9.7c0,1.1.4,2,1,2.5.6.5,1.3.8,2.3.8s1.5-.2,2.1-.6c.5-.4.8-1,.8-1.7s-.4-1.7-1.3-2.2c-.9-.5-2.4-1.1-4.4-1.8-2.1-.7-3.9-1.4-5.2-2.1-1.3-.7-2.5-1.6-3.4-2.9-1-1.3-1.5-3-1.5-5s.5-3.9,1.6-5.4c1.1-1.5,2.5-2.6,4.4-3.4,1.9-.8,4-1.2,6.3-1.2,3.8,0,6.9.9,9.1,2.7,2.3,1.8,3.5,4.3,3.6,7.5h-9.9c0-1-.3-1.7-.9-2.2-.6-.5-1.3-.7-2.2-.7s-1.2.2-1.7.6c-.4.4-.7,1-.7,1.7s.2,1.2.7,1.6c.5.4,1.1.8,1.8,1.2.7.3,1.8.7,3.2,1.2,2.1.7,3.8,1.4,5.1,2.1,1.3.7,2.5,1.7,3.5,2.9,1,1.3,1.5,2.8,1.5,4.8s-.5,3.7-1.5,5.3c-1,1.6-2.4,2.8-4.2,3.7-1.8.9-4,1.3-6.5,1.3-3.8,0-6.9-.9-9.4-2.7h0Z"></path><path class="st1" d="M145,9.8v2.1h-.6v-1.3s-.6,1.3-.6,1.3h-.4l-.5-1.4v1.4h-.6v-2.1h.8l.5,1.4.5-1.4h.8ZM140.4,9.8h1.6v.5h-.5v1.6h-.6v-1.6s-.5,0-.5,0v-.5h0Z"></path><path id="GlobalFoundries-2" class="st2" d="M158,24.5h13v-13h-13v13ZM158,40.8h13v-13h-13v13Z"></path><path class="st1" d="M293,9.9c.3.1.5.3.6.6.1.3.2.5.2.9s0,.6-.2.9c-.1.3-.3.5-.6.6s-.5.2-.9.2-.6,0-.9-.2c-.3-.1-.5-.3-.6-.6-.1-.3-.2-.5-.2-.9s0-.6.2-.9c.1-.3.3-.5.6-.6.3-.1.5-.2.9-.2s.6,0,.9.2ZM293,12.4c.2-.2.4-.6.4-1s-.1-.7-.4-1-.5-.4-.9-.4-.7.1-.9.4c-.2.2-.3.6-.3,1s.1.7.3,1c.2.2.5.4.9.4s.7-.1.9-.4ZM292.8,11.4c0,0-.1.2-.2.2l.4.7h-.6l-.4-.6h0v.6h-.5v-1.7h.8c.2,0,.3,0,.5.2.1.1.2.2.2.4s0,.2,0,.3h0ZM291.9,11.2h.3s0,0,.1,0c0,0,0,0,0-.1s0,0,0,0c0,0,0,0-.1,0h-.3v.3Z"></path></g></svg>