<?xml version="1.0" encoding="UTF-8"?>
<svg id="Capa_1" data-name="Capa 1" xmlns="http://www.w3.org/2000/svg" viewBox="0 0 252.28 53.16">
  <defs>
    <style>
      .cls-1 {
        fill: #fff;
      }

      .cls-2 {
        fill: #bc596e;
        fill-rule: evenodd;
      }
    </style>
  </defs>
  <g>
    <path d="M104.73,8.46v11.06h-.07c-.94-1.72-2.62-2.58-5.01-2.58-2.53,0-4.58.93-6.14,2.78-1.56,1.84-2.34,4.3-2.34,7.38s.71,5.24,2.12,6.88c1.42,1.64,3.29,2.45,5.61,2.45,2.54,0,4.46-1,5.77-3.01h.07v2.56h5.74l-.02-27.51h-5.74ZM103.81,30.64c-.73.93-1.67,1.4-2.83,1.4-1.23,0-2.2-.44-2.89-1.33-.69-.88-1.04-2.14-1.04-3.78,0-1.74.36-3.11,1.07-4.1.7-1,1.69-1.51,2.98-1.51,1.11,0,2.02.4,2.73,1.2.7.8,1.05,1.8,1.05,3.01l.05,1.42h0c0,1.53-.37,2.76-1.12,3.69Z"/>
    <path d="M86.23,30.78v-13.4h-2.98v13.93c0,.8.11,1.5.33,2.11.23.59.53,1.09.91,1.49.39.4.84.7,1.36.89.52.19,1.08.29,1.67.29.42,0,.82-.03,1.2-.09.39-.05.7-.1.93-.16v-2.69c-.42.13-.9.2-1.43.2-1.32,0-1.98-.85-1.98-2.56Z"/>
    <path d="M71.69,16.94c-2.73,0-4.78,1.28-6.17,3.85-.35-1.15-1-2.08-1.94-2.78-.93-.71-2.04-1.07-3.32-1.07-2.53,0-4.45,1.13-5.77,3.38h-.07v-2.94h-2.98v18.59h2.98v-10.6c0-1.75.42-3.17,1.27-4.26.85-1.1,1.93-1.65,3.23-1.65,2.82,0,4.23,1.83,4.23,5.48v11.04h2.98v-10.6c0-1.62.44-3.01,1.33-4.18.88-1.16,1.97-1.74,3.25-1.74,1.49,0,2.55.46,3.2,1.38.64.92.96,2.41.96,4.47v10.68h2.98v-11.45c0-5.05-2.05-7.57-6.14-7.57Z"/>
    <path d="M84.78,12.66c.55,0,1-.19,1.38-.56.39-.38.58-.83.58-1.36,0-.56-.19-1.02-.58-1.38-.38-.37-.84-.56-1.38-.56s-.99.19-1.36.56c-.37.36-.56.82-.56,1.38s.19,1.02.56,1.38c.38.36.83.55,1.36.55Z"/>
    <path d="M39.24,16.94c-2.43,0-4.47.91-6.12,2.73-1.64,1.81-2.45,4.17-2.45,7.06,0,3.06.75,5.44,2.25,7.13,1.5,1.68,3.56,2.52,6.19,2.52s4.85-.59,6.48-1.76v-2.8c-1.75,1.39-3.68,2.08-5.77,2.08-1.86,0-3.33-.56-4.39-1.69-1.07-1.14-1.62-2.74-1.67-4.81h13.13v-1.56c0-2.8-.67-4.98-2-6.55-1.33-1.57-3.21-2.36-5.65-2.36ZM33.8,24.89c.23-1.62.84-2.94,1.82-3.94.98-1,2.17-1.51,3.58-1.51s2.58.48,3.4,1.43c.82.96,1.24,2.29,1.25,4.01h-10.04Z"/>
    <path d="M201.4,16.9c-2.75,0-4.83,1.16-6.25,3.47-.97-2.31-2.77-3.47-5.39-3.47-1.27,0-2.45.32-3.52.96-1.07.62-1.9,1.42-2.49,2.41h-.07v-2.91h-5.74v18.62h5.74v-10.33c0-1.33.29-2.38.87-3.16.59-.77,1.38-1.16,2.36-1.16,1.95,0,2.92,1.31,2.92,3.94v10.71h5.74v-10.42c0-1.22.3-2.23.89-3.05.59-.81,1.36-1.22,2.31-1.22,1.98,0,2.98,1.35,2.98,4.05v10.61h5.72v-11.59c0-4.99-2.02-7.48-6.06-7.48Z"/>
    <path d="M123.89,28.73c-.29.93-.49,1.75-.6,2.45h-.07c-.12-.96-.29-1.79-.51-2.49l-3.47-11.31h-6.36l7.54,18.56-.98,2.31c-.58,1.39-1.61,2.09-3.09,2.09-.9,0-1.73-.22-2.49-.67v4.58c.9.31,2.04.47,3.43.47,3.66,0,6.39-2.42,8.21-7.25l7.54-20.08h-5.65s-3.5,11.35-3.5,11.35Z"/>
    <path d="M214.79,14.44h0c.98,0,1.77-.28,2.38-.84.62-.56.93-1.27.93-2.14,0-.87-.31-1.57-.93-2.11-.61-.53-1.4-.8-2.38-.8s-1.76.27-2.38.8c-.62.55-.93,1.25-.93,2.11s.31,1.54.93,2.12c.62.57,1.41.85,2.38.85Z"/>
    <path d="M219.63,32.07c-.63,0-1.13-.2-1.51-.6-.37-.41-.56-1.01-.56-1.8l.04-12.3h-5.7v13.56c0,.85.12,1.61.36,2.29.24.68.58,1.26,1.02,1.74.45.47.98.84,1.6,1.09.63.25,1.33.38,2.09.38.84,0,1.63-.06,2.4-.18.77-.11,1.51-.25,2.2-.44v-4.03c-.33.06-.65.12-.96.18-.33.06-.65.09-.96.09Z"/>
    <path d="M165.43,16.92c-1.14,0-2.4.16-3.8.47-1.38.32-2.47.68-3.27,1.09v4.32c2-1.32,4.1-1.98,6.32-1.98s3.3,1.02,3.3,3.05l-5.05.67c-4.27.56-6.41,2.64-6.41,6.25,0,1.71.51,3.08,1.54,4.1,1.04,1.02,2.46,1.52,4.26,1.52,2.45,0,4.29-1.04,5.54-3.12h.07v2.67h5.43v-11.11c0-5.29-2.64-7.94-7.94-7.94ZM166.96,31.26c-.68.75-1.56,1.12-2.63,1.12-.77,0-1.39-.21-1.85-.62-.45-.42-.67-.96-.67-1.62,0-1.44.93-2.28,2.8-2.52l3.38-.44v1.25h0c0,1.13-.34,2.07-1.02,2.82Z"/>
    <path d="M147.17,16.92c-2.61,0-4.61,1.13-5.97,3.4h-.07v-2.94h-5.74v18.61h5.74v-10.6c0-1.17.32-2.14.96-2.91.64-.76,1.46-1.14,2.45-1.14,2.06,0,3.09,1.44,3.09,4.32v10.32h5.72v-11.39c0-5.11-2.06-7.66-6.17-7.66Z"/>
    <path d="M251.92,14.98c-.23-.56-.57-1.07-1.02-1.49-.47-.45-1-.82-1.58-1.11-.67-.34-1.36-.63-2.07-.87l-1.29-.42c-.4-.13-.78-.29-1.16-.47-.35-.18-.63-.39-.85-.63s-.33-.55-.33-.87c0-.24.07-.48.22-.67.15-.21.36-.38.6-.49.25-.13.55-.23.87-.29.35-.07.71-.11,1.07-.11.8,0,1.61.11,2.43.33.82.2,1.61.52,2.34.94v-4.43c-.82-.24-1.66-.42-2.51-.55-.85-.13-1.68-.2-2.51-.2-1.05,0-2.07.12-3.05.34-.92.2-1.8.55-2.6,1.05-.74.46-1.36,1.09-1.82,1.83-.45.75-.67,1.64-.67,2.69,0,.76.1,1.42.29,1.98.2.54.49,1.04.87,1.47.39.42.86.8,1.42,1.13.57.31,1.22.61,1.96.89l1.43.49c.5.15.95.31,1.36.49.38.15.73.37,1.04.63.26.23.41.56.4.91,0,.57-.3.99-.89,1.27-.58.28-1.38.42-2.4.42-.91-.01-1.8-.15-2.67-.42-.93-.28-5.38-1.9-7.57-1.9-3.17,0-5.71.91-7.61,2.73-1.89,1.82-2.83,4.3-2.83,7.46,0,2.74.88,4.97,2.65,6.7,1.77,1.73,4.08,2.6,6.94,2.6,2.45,0,4.32-.38,5.61-1.13v-4.6c-1.37.9-2.77,1.34-4.2,1.34-1.61,0-2.88-.47-3.8-1.4-.92-.94-1.38-2.24-1.38-3.89s.48-3.02,1.43-3.98c.97-.97,2.28-1.45,3.92-1.45,1.48,0,7.67,1.83,9.71,1.83,1.13,0,2.19-.12,3.21-.34,1.03-.22,1.92-.57,2.73-1.05.78-.48,1.43-1.13,1.91-1.91.49-.79.73-1.73.73-2.83,0-.79-.12-1.46-.36-2.03Z"/>
  </g>
  <path class="cls-2" d="M28.6,53.16c-10.22,0-19.66-5.07-24.77-13.29C-1.28,31.64-1.28,21.51,3.83,13.28,8.94,5.05,18.39,0,28.6,0"/>
  <path class="cls-1" d="M15.03,35.51v-3.21c1.68,1.2,3.53,1.8,5.55,1.8,2.71,0,4.06-.87,4.06-2.61,0-.49-.12-.91-.36-1.25-.21-.35-.53-.66-.94-.92-.39-.27-.85-.5-1.39-.71-.53-.22-1.1-.44-1.71-.67-.85-.33-1.61-.65-2.26-.96-.64-.34-1.17-.71-1.6-1.12-.43-.42-.75-.9-.96-1.43s-.32-1.15-.32-1.87c0-.87.21-1.64.62-2.3.41-.68.97-1.24,1.66-1.68.69-.46,1.47-.8,2.35-1.03.89-.23,1.81-.34,2.75-.34,1.67,0,3.16.28,4.48.83v3.01c-1.42-.89-3.05-1.34-4.89-1.34-.58,0-1.1.07-1.56.2-.46.12-.86.3-1.2.53-.33.23-.58.51-.77.83-.18.31-.26.66-.26,1.05,0,.48.09.89.26,1.21.19.33.46.62.81.87.35.25.78.48,1.28.69.5.21,1.07.43,1.71.67.85.31,1.62.63,2.3.96.68.33,1.25.7,1.73,1.12.48.41.84.89,1.09,1.43.26.53.39,1.18.39,1.92,0,.92-.21,1.72-.64,2.39-.41.68-.97,1.24-1.67,1.68-.7.45-1.51.78-2.43,1-.92.22-1.88.33-2.88.33-1.98,0-3.74-.33-5.19-1.08h0Z"/>
</svg>