<svg xmlns="http://www.w3.org/2000/svg" viewBox="0 0 180 180">
  <defs>
    <linearGradient id="openhw-explorer-mark-gradient" x1="30" x2="150" y1="18" y2="162">
      <stop stop-color="#0D63D8" />
      <stop offset="0.48" stop-color="#073D82" />
      <stop offset="1" stop-color="#061B3F" />
    </linearGradient>
  </defs>
  <rect x="12" y="12" width="156" height="156" rx="42" fill="url(#openhw-explorer-mark-gradient)" />
  <path fill="#FFFFFF" fill-rule="evenodd" d="M47 47h37a15 15 0 0 1 15 15v20a15 15 0 0 1-15 15H47a15 15 0 0 1-15-15V62a15 15 0 0 1 15-15Zm4 18v15h30V65H51Z" />
  <path fill="#FFFFFF" d="M106 47h15v19h28V47h15v50h-15V81h-28v16h-15V47Z" />
  <path d="M47 132 117 90M62 94l73 49" fill="none" stroke="#FFFFFF" stroke-linecap="square" stroke-linejoin="round" stroke-width="17" />
  <path d="M126 132h35l-41-37Z" fill="#18A957" />
</svg>
